  0
SECTION
  2
HEADER
  9
$ACADVER
  1
AC1009
  9
$MEASUREMENT
 70
     1
  0
ENDSEC
  0
SECTION
  2
ENTITIES
  0
LWPOLYLINE
  8
0
 62
7
 90
5
 70
1
 10
25.800000
 20
7.698437
 10
25.201563
 20
7.698437
 10
25.201563
 20
6.901562
 10
26.398438
 20
6.901562
 10
26.398438
 20
7.698437
  0
LWPOLYLINE
  8
0
 62
7
 90
5
 70
1
 10
25.800000
 20
9.498437
 10
25.201563
 20
9.498437
 10
25.201563
 20
8.701562
 10
26.398438
 20
8.701562
 10
26.398438
 20
9.498437
  0
LWPOLYLINE
  8
0
 62
7
 90
5
 70
1
 10
8.098437
 20
22.200000
 10
8.098437
 20
22.698438
 10
7.001562
 20
22.698438
 10
7.001562
 20
21.701562
 10
8.098437
 20
21.701562
  0
LWPOLYLINE
  8
0
 62
7
 90
5
 70
1
 10
9.798438
 20
22.200000
 10
9.798438
 20
22.698438
 10
8.701562
 20
22.698438
 10
8.701562
 20
21.701562
 10
9.798438
 20
21.701562
  0
LWPOLYLINE
  8
0
 62
7
 90
5
 70
1
 10
8.098437
 20
14.800000
 10
8.098437
 20
15.298438
 10
7.001562
 20
15.298438
 10
7.001562
 20
14.301563
 10
8.098437
 20
14.301563
  0
LWPOLYLINE
  8
0
 62
7
 90
5
 70
1
 10
9.798438
 20
14.800000
 10
9.798438
 20
15.298438
 10
8.701562
 20
15.298438
 10
8.701562
 20
14.301563
 10
9.798438
 20
14.301563
  0
LWPOLYLINE
  8
0
 62
7
 90
5
 70
1
 10
-6.900000
 20
-0.498438
 10
-6.401563
 20
-0.498438
 10
-6.401563
 20
0.598437
 10
-7.398438
 20
0.598438
 10
-7.398438
 20
-0.498437
  0
LWPOLYLINE
  8
0
 62
7
 90
5
 70
1
 10
-6.900000
 20
-2.198437
 10
-6.401563
 20
-2.198437
 10
-6.401563
 20
-1.101562
 10
-7.398438
 20
-1.101562
 10
-7.398438
 20
-2.198437
  0
LWPOLYLINE
  8
0
 62
7
 90
5
 70
1
 10
27.998437
 20
13.700000
 10
27.998437
 20
14.198437
 10
26.901563
 20
14.198437
 10
26.901563
 20
13.201562
 10
27.998437
 20
13.201562
  0
LWPOLYLINE
  8
0
 62
7
 90
5
 70
1
 10
29.698437
 20
13.700000
 10
29.698437
 20
14.198437
 10
28.601562
 20
14.198437
 10
28.601562
 20
13.201562
 10
29.698437
 20
13.201562
  0
LWPOLYLINE
  8
0
 62
7
 90
5
 70
1
 10
41.828437
 20
17.440000
 10
41.828437
 20
17.938438
 10
40.731563
 20
17.938438
 10
40.731563
 20
16.941562
 10
41.828437
 20
16.941562
  0
LWPOLYLINE
  8
0
 62
7
 90
5
 70
1
 10
43.528437
 20
17.440000
 10
43.528437
 20
17.938438
 10
42.431562
 20
17.938438
 10
42.431562
 20
16.941562
 10
43.528437
 20
16.941562
  0
LWPOLYLINE
  8
0
 62
7
 90
5
 70
1
 10
18.850000
 20
-1.298437
 10
19.348438
 20
-1.298437
 10
19.348438
 20
-0.201563
 10
18.351562
 20
-0.201562
 10
18.351562
 20
-1.298437
  0
LWPOLYLINE
  8
0
 62
7
 90
5
 70
1
 10
18.850000
 20
-2.998438
 10
19.348438
 20
-2.998438
 10
19.348438
 20
-1.901563
 10
18.351562
 20
-1.901563
 10
18.351562
 20
-2.998438
  0
LWPOLYLINE
  8
0
 62
7
 90
5
 70
1
 10
16.600000
 20
-0.998437
 10
17.198438
 20
-0.998438
 10
17.198438
 20
-0.201563
 10
16.001563
 20
-0.201562
 10
16.001563
 20
-0.998437
  0
LWPOLYLINE
  8
0
 62
7
 90
5
 70
1
 10
16.600000
 20
-2.798437
 10
17.198438
 20
-2.798437
 10
17.198438
 20
-2.001562
 10
16.001563
 20
-2.001562
 10
16.001563
 20
-2.798437
  0
LWPOLYLINE
  8
0
 62
7
 90
5
 70
1
 10
18.801562
 20
-4.100000
 10
18.801562
 20
-4.698437
 10
19.598437
 20
-4.698437
 10
19.598437
 20
-3.501562
 10
18.801562
 20
-3.501562
  0
LWPOLYLINE
  8
0
 62
7
 90
5
 70
1
 10
17.001562
 20
-4.100000
 10
17.001562
 20
-4.698437
 10
17.798437
 20
-4.698437
 10
17.798437
 20
-3.501562
 10
17.001562
 20
-3.501562
  0
LWPOLYLINE
  8
0
 62
7
 90
5
 70
1
 10
28.000000
 20
7.698437
 10
27.401563
 20
7.698437
 10
27.401563
 20
6.901562
 10
28.598437
 20
6.901562
 10
28.598437
 20
7.698437
  0
LWPOLYLINE
  8
0
 62
7
 90
5
 70
1
 10
28.000000
 20
9.498437
 10
27.401563
 20
9.498437
 10
27.401563
 20
8.701562
 10
28.598437
 20
8.701562
 10
28.598437
 20
9.498437
  0
LWPOLYLINE
  8
0
 62
7
 90
5
 70
1
 10
27.550000
 20
-1.198438
 10
28.048438
 20
-1.198438
 10
28.048438
 20
-0.101563
 10
27.051562
 20
-0.101562
 10
27.051562
 20
-1.198438
  0
LWPOLYLINE
  8
0
 62
7
 90
5
 70
1
 10
27.550000
 20
-2.898438
 10
28.048438
 20
-2.898438
 10
28.048438
 20
-1.801563
 10
27.051562
 20
-1.801563
 10
27.051562
 20
-2.898438
  0
LWPOLYLINE
  8
0
 62
7
 90
5
 70
1
 10
29.800000
 20
-0.998437
 10
30.398438
 20
-0.998438
 10
30.398438
 20
-0.201563
 10
29.201563
 20
-0.201562
 10
29.201563
 20
-0.998437
  0
LWPOLYLINE
  8
0
 62
7
 90
5
 70
1
 10
29.800000
 20
-2.798437
 10
30.398438
 20
-2.798437
 10
30.398438
 20
-2.001562
 10
29.201563
 20
-2.001562
 10
29.201563
 20
-2.798437
  0
LWPOLYLINE
  8
0
 62
7
 90
5
 70
1
 10
29.301562
 20
-5.250000
 10
29.301562
 20
-5.848438
 10
30.098437
 20
-5.848438
 10
30.098437
 20
-4.651562
 10
29.301562
 20
-4.651562
  0
LWPOLYLINE
  8
0
 62
7
 90
5
 70
1
 10
27.501562
 20
-5.250000
 10
27.501562
 20
-5.848438
 10
28.298437
 20
-5.848438
 10
28.298437
 20
-4.651562
 10
27.501562
 20
-4.651562
  0
LWPOLYLINE
  8
0
 62
7
 90
5
 70
1
 10
44.074937
 20
32.753000
 10
44.074937
 20
33.251438
 10
42.978063
 20
33.251438
 10
42.978063
 20
32.254562
 10
44.074937
 20
32.254562
  0
LWPOLYLINE
  8
0
 62
7
 90
5
 70
1
 10
45.774938
 20
32.753000
 10
45.774938
 20
33.251438
 10
44.678063
 20
33.251438
 10
44.678063
 20
32.254562
 10
45.774938
 20
32.254562
  0
LWPOLYLINE
  8
0
 62
7
 90
5
 70
1
 10
40.636563
 20
23.200000
 10
40.636563
 20
22.701562
 10
41.733438
 20
22.701562
 10
41.733438
 20
23.698438
 10
40.636563
 20
23.698438
  0
LWPOLYLINE
  8
0
 62
7
 90
5
 70
1
 10
38.936563
 20
23.200000
 10
38.936563
 20
22.701562
 10
40.033437
 20
22.701562
 10
40.033437
 20
23.698438
 10
38.936563
 20
23.698438
  0
LWPOLYLINE
  8
0
 62
7
 90
5
 70
1
  0
LWPOLYLINE
  8
0
 62
7
 90
5
 70
1
 10
21.163438
 20
-1.565000
 10
21.163438
 20
-1.441562
 10
20.591563
 20
-1.441562
 10
20.591563
 20
-1.688438
 10
21.163438
 20
-1.688438
  0
LWPOLYLINE
  8
0
 62
7
 90
5
 70
1
  0
LWPOLYLINE
  8
0
 62
7
 90
5
 70
1
 10
21.163438
 20
-2.115000
 10
21.163438
 20
-1.991563
 10
20.591563
 20
-1.991563
 10
20.591563
 20
-2.238438
 10
21.163438
 20
-2.238438
  0
LWPOLYLINE
  8
0
 62
7
 90
5
 70
1
  0
LWPOLYLINE
  8
0
 62
7
 90
5
 70
1
 10
22.338438
 20
-1.365000
 10
22.338438
 20
-1.041562
 10
21.316562
 20
-1.041562
 10
21.316562
 20
-1.688438
 10
22.338438
 20
-1.688438
  0
LWPOLYLINE
  8
0
 62
7
 90
5
 70
1
  0
LWPOLYLINE
  8
0
 62
7
 90
5
 70
1
 10
22.338438
 20
-2.315000
 10
22.338438
 20
-1.991562
 10
21.316562
 20
-1.991562
 10
21.316562
 20
-2.638437
 10
22.338438
 20
-2.638437
  0
LWPOLYLINE
  8
0
 62
7
 90
5
 70
1
  0
LWPOLYLINE
  8
0
 62
7
 90
5
 70
1
 10
22.641562
 20
-2.315000
 10
22.641562
 20
-2.638437
 10
23.663438
 20
-2.638437
 10
23.663438
 20
-1.991562
 10
22.641562
 20
-1.991562
  0
LWPOLYLINE
  8
0
 62
7
 90
5
 70
1
  0
LWPOLYLINE
  8
0
 62
7
 90
5
 70
1
 10
22.641562
 20
-1.365000
 10
22.641562
 20
-1.688438
 10
23.663438
 20
-1.688438
 10
23.663438
 20
-1.041562
 10
22.641562
 20
-1.041562
  0
LWPOLYLINE
  8
0
 62
7
 90
5
 70
1
  0
LWPOLYLINE
  8
0
 62
7
 90
5
 70
1
 10
21.490000
 20
-3.006563
 10
21.376562
 20
-3.006563
 10
21.376562
 20
-3.688438
 10
21.603437
 20
-3.688438
 10
21.603437
 20
-3.006563
  0
LWPOLYLINE
  8
0
 62
7
 90
5
 70
1
  0
LWPOLYLINE
  8
0
 62
7
 90
5
 70
1
 10
21.990000
 20
-3.006563
 10
21.876562
 20
-3.006563
 10
21.876562
 20
-3.688438
 10
22.103437
 20
-3.688438
 10
22.103437
 20
-3.006563
  0
LWPOLYLINE
  8
0
 62
7
 90
5
 70
1
  0
LWPOLYLINE
  8
0
 62
7
 90
5
 70
1
 10
22.490000
 20
-3.006563
 10
22.376562
 20
-3.006563
 10
22.376562
 20
-3.688438
 10
22.603437
 20
-3.688438
 10
22.603437
 20
-3.006563
  0
LWPOLYLINE
  8
0
 62
7
 90
5
 70
1
  0
LWPOLYLINE
  8
0
 62
7
 90
5
 70
1
 10
22.990000
 20
-3.006563
 10
22.876562
 20
-3.006563
 10
22.876562
 20
-3.688438
 10
23.103437
 20
-3.688438
 10
23.103437
 20
-3.006563
  0
LWPOLYLINE
  8
0
 62
7
 90
5
 70
1
  0
LWPOLYLINE
  8
0
 62
7
 90
5
 70
1
 10
23.490000
 20
-3.006563
 10
23.376562
 20
-3.006563
 10
23.376562
 20
-3.688438
 10
23.603437
 20
-3.688438
 10
23.603437
 20
-3.006563
  0
LWPOLYLINE
  8
0
 62
7
 90
5
 70
1
  0
LWPOLYLINE
  8
0
 62
7
 90
5
 70
1
 10
23.490000
 20
-0.673438
 10
23.603437
 20
-0.673438
 10
23.603437
 20
0.008437
 10
23.376562
 20
0.008438
 10
23.376562
 20
-0.673438
  0
LWPOLYLINE
  8
0
 62
7
 90
5
 70
1
  0
LWPOLYLINE
  8
0
 62
7
 90
5
 70
1
 10
22.990000
 20
-0.673438
 10
23.103437
 20
-0.673438
 10
23.103437
 20
0.008437
 10
22.876562
 20
0.008438
 10
22.876562
 20
-0.673438
  0
LWPOLYLINE
  8
0
 62
7
 90
5
 70
1
  0
LWPOLYLINE
  8
0
 62
7
 90
5
 70
1
 10
22.490000
 20
-0.673438
 10
22.603437
 20
-0.673438
 10
22.603437
 20
0.008437
 10
22.376562
 20
0.008438
 10
22.376562
 20
-0.673438
  0
LWPOLYLINE
  8
0
 62
7
 90
5
 70
1
  0
LWPOLYLINE
  8
0
 62
7
 90
5
 70
1
 10
21.990000
 20
-0.673438
 10
22.103437
 20
-0.673438
 10
22.103437
 20
0.008437
 10
21.876562
 20
0.008438
 10
21.876562
 20
-0.673438
  0
LWPOLYLINE
  8
0
 62
7
 90
5
 70
1
  0
LWPOLYLINE
  8
0
 62
7
 90
5
 70
1
 10
21.490000
 20
-0.673438
 10
21.603437
 20
-0.673438
 10
21.603437
 20
0.008437
 10
21.376562
 20
0.008438
 10
21.376562
 20
-0.673438
  0
LWPOLYLINE
  8
0
 62
7
 90
5
 70
1
  0
LWPOLYLINE
  8
0
 62
7
 90
5
 70
1
 10
23.816562
 20
-2.115000
 10
23.816562
 20
-2.238438
 10
24.388437
 20
-2.238438
 10
24.388437
 20
-1.991563
 10
23.816562
 20
-1.991563
  0
LWPOLYLINE
  8
0
 62
7
 90
5
 70
1
  0
LWPOLYLINE
  8
0
 62
7
 90
5
 70
1
 10
23.816562
 20
-1.565000
 10
23.816562
 20
-1.688438
 10
24.388437
 20
-1.688438
 10
24.388437
 20
-1.441562
 10
23.816562
 20
-1.441562
  0
LWPOLYLINE
  8
0
 62
7
 90
5
 70
1
  0
LWPOLYLINE
  8
0
 62
7
 90
5
 70
1
 10
32.083438
 20
-1.565000
 10
32.083438
 20
-1.441562
 10
31.511563
 20
-1.441562
 10
31.511563
 20
-1.688438
 10
32.083438
 20
-1.688438
  0
LWPOLYLINE
  8
0
 62
7
 90
5
 70
1
  0
LWPOLYLINE
  8
0
 62
7
 90
5
 70
1
 10
32.083438
 20
-2.115000
 10
32.083438
 20
-1.991563
 10
31.511563
 20
-1.991563
 10
31.511563
 20
-2.238438
 10
32.083438
 20
-2.238438
  0
LWPOLYLINE
  8
0
 62
7
 90
5
 70
1
  0
LWPOLYLINE
  8
0
 62
7
 90
5
 70
1
 10
33.258437
 20
-1.365000
 10
33.258437
 20
-1.041562
 10
32.236563
 20
-1.041562
 10
32.236563
 20
-1.688438
 10
33.258437
 20
-1.688438
  0
LWPOLYLINE
  8
0
 62
7
 90
5
 70
1
  0
LWPOLYLINE
  8
0
 62
7
 90
5
 70
1
 10
33.258437
 20
-2.315000
 10
33.258437
 20
-1.991562
 10
32.236563
 20
-1.991562
 10
32.236563
 20
-2.638437
 10
33.258437
 20
-2.638437
  0
LWPOLYLINE
  8
0
 62
7
 90
5
 70
1
  0
LWPOLYLINE
  8
0
 62
7
 90
5
 70
1
 10
33.561563
 20
-2.315000
 10
33.561563
 20
-2.638437
 10
34.583437
 20
-2.638437
 10
34.583437
 20
-1.991562
 10
33.561563
 20
-1.991562
  0
LWPOLYLINE
  8
0
 62
7
 90
5
 70
1
  0
LWPOLYLINE
  8
0
 62
7
 90
5
 70
1
 10
33.561563
 20
-1.365000
 10
33.561563
 20
-1.688438
 10
34.583437
 20
-1.688438
 10
34.583437
 20
-1.041562
 10
33.561563
 20
-1.041562
  0
LWPOLYLINE
  8
0
 62
7
 90
5
 70
1
  0
LWPOLYLINE
  8
0
 62
7
 90
5
 70
1
 10
32.410000
 20
-3.006563
 10
32.296562
 20
-3.006563
 10
32.296562
 20
-3.688438
 10
32.523438
 20
-3.688438
 10
32.523438
 20
-3.006563
  0
LWPOLYLINE
  8
0
 62
7
 90
5
 70
1
  0
LWPOLYLINE
  8
0
 62
7
 90
5
 70
1
 10
32.910000
 20
-3.006563
 10
32.796562
 20
-3.006563
 10
32.796562
 20
-3.688438
 10
33.023438
 20
-3.688438
 10
33.023438
 20
-3.006563
  0
LWPOLYLINE
  8
0
 62
7
 90
5
 70
1
  0
LWPOLYLINE
  8
0
 62
7
 90
5
 70
1
 10
33.410000
 20
-3.006563
 10
33.296562
 20
-3.006563
 10
33.296562
 20
-3.688438
 10
33.523438
 20
-3.688438
 10
33.523438
 20
-3.006563
  0
LWPOLYLINE
  8
0
 62
7
 90
5
 70
1
  0
LWPOLYLINE
  8
0
 62
7
 90
5
 70
1
 10
33.910000
 20
-3.006563
 10
33.796562
 20
-3.006563
 10
33.796562
 20
-3.688438
 10
34.023438
 20
-3.688438
 10
34.023438
 20
-3.006563
  0
LWPOLYLINE
  8
0
 62
7
 90
5
 70
1
  0
LWPOLYLINE
  8
0
 62
7
 90
5
 70
1
 10
34.410000
 20
-3.006563
 10
34.296562
 20
-3.006563
 10
34.296562
 20
-3.688438
 10
34.523438
 20
-3.688438
 10
34.523438
 20
-3.006563
  0
LWPOLYLINE
  8
0
 62
7
 90
5
 70
1
  0
LWPOLYLINE
  8
0
 62
7
 90
5
 70
1
 10
34.410000
 20
-0.673438
 10
34.523438
 20
-0.673438
 10
34.523438
 20
0.008437
 10
34.296562
 20
0.008438
 10
34.296562
 20
-0.673438
  0
LWPOLYLINE
  8
0
 62
7
 90
5
 70
1
  0
LWPOLYLINE
  8
0
 62
7
 90
5
 70
1
 10
33.910000
 20
-0.673438
 10
34.023438
 20
-0.673438
 10
34.023438
 20
0.008437
 10
33.796562
 20
0.008438
 10
33.796562
 20
-0.673438
  0
LWPOLYLINE
  8
0
 62
7
 90
5
 70
1
  0
LWPOLYLINE
  8
0
 62
7
 90
5
 70
1
 10
33.410000
 20
-0.673438
 10
33.523438
 20
-0.673438
 10
33.523438
 20
0.008437
 10
33.296562
 20
0.008438
 10
33.296562
 20
-0.673438
  0
LWPOLYLINE
  8
0
 62
7
 90
5
 70
1
  0
LWPOLYLINE
  8
0
 62
7
 90
5
 70
1
 10
32.910000
 20
-0.673438
 10
33.023438
 20
-0.673438
 10
33.023438
 20
0.008437
 10
32.796562
 20
0.008438
 10
32.796562
 20
-0.673438
  0
LWPOLYLINE
  8
0
 62
7
 90
5
 70
1
  0
LWPOLYLINE
  8
0
 62
7
 90
5
 70
1
 10
32.410000
 20
-0.673438
 10
32.523438
 20
-0.673438
 10
32.523438
 20
0.008437
 10
32.296562
 20
0.008438
 10
32.296562
 20
-0.673438
  0
LWPOLYLINE
  8
0
 62
7
 90
5
 70
1
  0
LWPOLYLINE
  8
0
 62
7
 90
5
 70
1
 10
34.736562
 20
-2.115000
 10
34.736562
 20
-2.238438
 10
35.308438
 20
-2.238438
 10
35.308438
 20
-1.991563
 10
34.736562
 20
-1.991563
  0
LWPOLYLINE
  8
0
 62
7
 90
5
 70
1
  0
LWPOLYLINE
  8
0
 62
7
 90
5
 70
1
 10
34.736562
 20
-1.565000
 10
34.736562
 20
-1.688438
 10
35.308438
 20
-1.688438
 10
35.308438
 20
-1.441562
 10
34.736562
 20
-1.441562
  0
LWPOLYLINE
  8
0
 62
7
 90
5
 70
1
 10
17.150000
 20
8.398438
 10
16.751562
 20
8.398438
 10
16.751562
 20
7.601562
 10
17.548437
 20
7.601562
 10
17.548437
 20
8.398438
  0
LWPOLYLINE
  8
0
 62
7
 90
5
 70
1
 10
15.650000
 20
8.398438
 10
15.251563
 20
8.398438
 10
15.251563
 20
7.601562
 10
16.048437
 20
7.601562
 10
16.048437
 20
8.398438
  0
LWPOLYLINE
  8
0
 62
7
 90
5
 70
1
 10
34.700000
 20
17.801562
 10
35.148438
 20
17.801562
 10
35.148438
 20
18.598437
 10
34.251563
 20
18.598437
 10
34.251563
 20
17.801562
  0
LWPOLYLINE
  8
0
 62
7
 90
5
 70
1
 10
34.700000
 20
15.901563
 10
35.148438
 20
15.901563
 10
35.148438
 20
16.698438
 10
34.251563
 20
16.698438
 10
34.251563
 20
15.901563
  0
LWPOLYLINE
  8
0
 62
7
 90
5
 70
1
 10
36.800000
 20
16.851562
 10
37.248437
 20
16.851562
 10
37.248437
 20
17.648438
 10
36.351562
 20
17.648438
 10
36.351562
 20
16.851562
  0
LWPOLYLINE
  8
0
 62
7
 90
5
 70
1
 10
22.698437
 20
8.500000
 10
22.698437
 20
8.998437
 10
21.601562
 20
8.998437
 10
21.601562
 20
8.001563
 10
22.698437
 20
8.001563
  0
LWPOLYLINE
  8
0
 62
7
 90
5
 70
1
 10
24.398438
 20
8.500000
 10
24.398438
 20
8.998437
 10
23.301563
 20
8.998437
 10
23.301563
 20
8.001563
 10
24.398438
 20
8.001563
  0
LWPOLYLINE
  8
0
 62
7
 90
5
 70
1
 10
-10.401562
 20
23.500000
 10
-10.401562
 20
23.998438
 10
-11.498437
 20
23.998438
 10
-11.498437
 20
23.001562
 10
-10.401562
 20
23.001562
  0
LWPOLYLINE
  8
0
 62
7
 90
5
 70
1
 10
-8.701562
 20
23.500000
 10
-8.701562
 20
23.998438
 10
-9.798438
 20
23.998438
 10
-9.798438
 20
23.001562
 10
-8.701562
 20
23.001562
  0
LWPOLYLINE
  8
0
 62
7
 90
5
 70
1
 10
19.498437
 20
10.600000
 10
19.498437
 20
11.098437
 10
18.401563
 20
11.098437
 10
18.401563
 20
10.101562
 10
19.498437
 20
10.101562
  0
LWPOLYLINE
  8
0
 62
7
 90
5
 70
1
 10
21.198437
 20
10.600000
 10
21.198437
 20
11.098437
 10
20.101562
 20
11.098437
 10
20.101562
 20
10.101562
 10
21.198437
 20
10.101562
  0
LWPOLYLINE
  8
0
 62
7
 90
5
 70
1
 10
19.498437
 20
8.500000
 10
19.498437
 20
8.998437
 10
18.401563
 20
8.998437
 10
18.401563
 20
8.001563
 10
19.498437
 20
8.001563
  0
LWPOLYLINE
  8
0
 62
7
 90
5
 70
1
 10
21.198437
 20
8.500000
 10
21.198437
 20
8.998437
 10
20.101562
 20
8.998437
 10
20.101562
 20
8.001563
 10
21.198437
 20
8.001563
  0
LWPOLYLINE
  8
0
 62
7
 90
5
 70
1
 10
17.200000
 20
9.998437
 10
16.701562
 20
9.998437
 10
16.701562
 20
8.901562
 10
17.698438
 20
8.901562
 10
17.698438
 20
9.998437
  0
LWPOLYLINE
  8
0
 62
7
 90
5
 70
1
 10
17.200000
 20
11.698438
 10
16.701562
 20
11.698438
 10
16.701562
 20
10.601562
 10
17.698438
 20
10.601562
 10
17.698438
 20
11.698438
  0
LWPOLYLINE
  8
0
 62
7
 90
5
 70
1
 10
24.601562
 20
10.700000
 10
24.601562
 20
10.201562
 10
25.698437
 20
10.201562
 10
25.698437
 20
11.198437
 10
24.601562
 20
11.198437
  0
LWPOLYLINE
  8
0
 62
7
 90
5
 70
1
 10
22.901563
 20
10.700000
 10
22.901563
 20
10.201562
 10
23.998437
 20
10.201562
 10
23.998437
 20
11.198437
 10
22.901563
 20
11.198437
  0
LWPOLYLINE
  8
0
 62
7
 90
5
 70
1
 10
32.200000
 20
16.051563
 10
32.698438
 20
16.051563
 10
32.698438
 20
17.148438
 10
31.701563
 20
17.148438
 10
31.701563
 20
16.051563
  0
LWPOLYLINE
  8
0
 62
7
 90
5
 70
1
 10
32.200000
 20
14.351562
 10
32.698438
 20
14.351562
 10
32.698438
 20
15.448438
 10
31.701563
 20
15.448438
 10
31.701563
 20
14.351562
  0
LWPOLYLINE
  8
0
 62
7
 90
5
 70
1
 10
31.498437
 20
18.400000
 10
31.498437
 20
18.898438
 10
30.401563
 20
18.898438
 10
30.401563
 20
17.901562
 10
31.498437
 20
17.901562
  0
LWPOLYLINE
  8
0
 62
7
 90
5
 70
1
 10
33.198437
 20
18.400000
 10
33.198437
 20
18.898438
 10
32.101562
 20
18.898438
 10
32.101562
 20
17.901562
 10
33.198437
 20
17.901562
  0
LWPOLYLINE
  8
0
 62
7
 90
5
 70
1
 10
14.588437
 20
5.450000
 10
14.588437
 20
5.948437
 10
13.491562
 20
5.948437
 10
13.491562
 20
4.951563
 10
14.588437
 20
4.951563
  0
LWPOLYLINE
  8
0
 62
7
 90
5
 70
1
 10
16.288438
 20
5.450000
 10
16.288438
 20
5.948437
 10
15.191562
 20
5.948437
 10
15.191562
 20
4.951563
 10
16.288438
 20
4.951563
  0
LWPOLYLINE
  8
0
 62
7
 90
5
 70
1
 10
27.434000
 20
20.752063
 10
27.782438
 20
20.752063
 10
27.782438
 20
22.548938
 10
27.085563
 20
22.548938
 10
27.085563
 20
20.752063
  0
LWPOLYLINE
  8
0
 62
7
 90
5
 70
1
 10
28.484000
 20
20.752063
 10
28.882438
 20
20.752063
 10
28.882438
 20
22.548938
 10
28.085563
 20
22.548938
 10
28.085563
 20
20.752063
  0
LWPOLYLINE
  8
0
 62
7
 90
5
 70
1
 10
29.584000
 20
20.752063
 10
29.982437
 20
20.752063
 10
29.982437
 20
22.548938
 10
29.185562
 20
22.548938
 10
29.185562
 20
20.752063
  0
LWPOLYLINE
  8
0
 62
7
 90
5
 70
1
 10
30.684000
 20
20.752063
 10
31.082438
 20
20.752063
 10
31.082438
 20
22.548938
 10
30.285563
 20
22.548938
 10
30.285563
 20
20.752063
  0
LWPOLYLINE
  8
0
 62
7
 90
5
 70
1
 10
31.784000
 20
20.752063
 10
32.182437
 20
20.752063
 10
32.182437
 20
22.548938
 10
31.385562
 20
22.548938
 10
31.385562
 20
20.752063
  0
LWPOLYLINE
  8
0
 62
7
 90
5
 70
1
 10
32.884000
 20
20.752063
 10
33.282438
 20
20.752063
 10
33.282438
 20
22.548938
 10
32.485563
 20
22.548938
 10
32.485563
 20
20.752063
  0
LWPOLYLINE
  8
0
 62
7
 90
5
 70
1
 10
33.984000
 20
20.752063
 10
34.382438
 20
20.752063
 10
34.382438
 20
22.548938
 10
33.585563
 20
22.548938
 10
33.585563
 20
20.752063
  0
LWPOLYLINE
  8
0
 62
7
 90
5
 70
1
 10
35.084000
 20
20.752063
 10
35.482438
 20
20.752063
 10
35.482438
 20
22.548938
 10
34.685563
 20
22.548938
 10
34.685563
 20
20.752063
  0
LWPOLYLINE
  8
0
 62
7
 90
5
 70
1
 10
36.134000
 20
20.752063
 10
36.482438
 20
20.752063
 10
36.482438
 20
22.548938
 10
35.785562
 20
22.548938
 10
35.785562
 20
20.752063
  0
LWPOLYLINE
  8
0
 62
7
 90
5
 70
1
 10
36.134000
 20
30.252063
 10
36.482438
 20
30.252063
 10
36.482438
 20
32.048938
 10
35.785562
 20
32.048938
 10
35.785562
 20
30.252063
  0
LWPOLYLINE
  8
0
 62
7
 90
5
 70
1
 10
35.084000
 20
30.252063
 10
35.482438
 20
30.252063
 10
35.482438
 20
32.048938
 10
34.685563
 20
32.048938
 10
34.685563
 20
30.252063
  0
LWPOLYLINE
  8
0
 62
7
 90
5
 70
1
 10
33.984000
 20
30.252063
 10
34.382438
 20
30.252063
 10
34.382438
 20
32.048938
 10
33.585563
 20
32.048938
 10
33.585563
 20
30.252063
  0
LWPOLYLINE
  8
0
 62
7
 90
5
 70
1
 10
32.884000
 20
30.252063
 10
33.282438
 20
30.252063
 10
33.282438
 20
32.048938
 10
32.485563
 20
32.048938
 10
32.485563
 20
30.252063
  0
LWPOLYLINE
  8
0
 62
7
 90
5
 70
1
 10
31.784000
 20
30.252063
 10
32.182437
 20
30.252063
 10
32.182437
 20
32.048938
 10
31.385562
 20
32.048938
 10
31.385562
 20
30.252063
  0
LWPOLYLINE
  8
0
 62
7
 90
5
 70
1
 10
30.684000
 20
30.252063
 10
31.082438
 20
30.252063
 10
31.082438
 20
32.048938
 10
30.285563
 20
32.048938
 10
30.285563
 20
30.252063
  0
LWPOLYLINE
  8
0
 62
7
 90
5
 70
1
 10
29.584000
 20
30.252063
 10
29.982437
 20
30.252063
 10
29.982437
 20
32.048938
 10
29.185562
 20
32.048938
 10
29.185562
 20
30.252063
  0
LWPOLYLINE
  8
0
 62
7
 90
5
 70
1
 10
28.484000
 20
30.252063
 10
28.882438
 20
30.252063
 10
28.882438
 20
32.048938
 10
28.085563
 20
32.048938
 10
28.085563
 20
30.252063
  0
LWPOLYLINE
  8
0
 62
7
 90
5
 70
1
 10
27.434000
 20
30.252063
 10
27.782438
 20
30.252063
 10
27.782438
 20
32.048938
 10
27.085563
 20
32.048938
 10
27.085563
 20
30.252063
  0
LWPOLYLINE
  8
0
 62
7
 90
5
 70
1
 10
34.751562
 20
36.000000
 10
34.751562
 20
33.501562
 10
35.548437
 20
33.501562
 10
35.548437
 20
38.498438
 10
34.751562
 20
38.498438
  0
LWPOLYLINE
  8
0
 62
7
 90
5
 70
1
 10
36.251563
 20
36.000000
 10
36.251563
 20
33.501562
 10
40.898438
 20
33.501562
 10
40.898438
 20
38.498438
 10
36.251563
 20
38.498438
  0
LWPOLYLINE
  8
0
 62
7
 90
5
 70
1
 10
29.401563
 20
36.000000
 10
29.401563
 20
33.501562
 10
34.048437
 20
33.501562
 10
34.048437
 20
38.498438
 10
29.401563
 20
38.498438
  0
LWPOLYLINE
  8
0
 62
7
 90
5
 70
1
 10
25.972500
 20
5.051562
 10
26.288438
 20
5.051562
 10
26.288438
 20
6.318437
 10
25.656562
 20
6.318437
 10
25.656562
 20
5.051562
  0
LWPOLYLINE
  8
0
 62
7
 90
5
 70
1
 10
21.527500
 20
5.051562
 10
21.843438
 20
5.051562
 10
21.843438
 20
6.318437
 10
21.211562
 20
6.318437
 10
21.211562
 20
5.051562
  0
LWPOLYLINE
  8
0
 62
7
 90
5
 70
1
 10
33.390000
 20
12.181563
 10
34.888438
 20
12.181563
 10
34.888438
 20
13.778438
 10
31.891562
 20
13.778438
 10
31.891562
 20
12.181563
  0
LWPOLYLINE
  8
0
 62
7
 90
5
 70
1
 10
33.390000
 20
7.621562
 10
34.888438
 20
7.621562
 10
34.888438
 20
9.218438
 10
31.891562
 20
9.218438
 10
31.891562
 20
7.621562
  0
LWPOLYLINE
  8
0
 62
7
 90
5
 70
1
 10
40.288000
 20
8.288562
 10
43.143937
 20
8.288562
 10
43.143937
 20
13.111437
 10
37.432062
 20
13.111437
 10
37.432062
 20
8.288562
  0
LWPOLYLINE
  8
0
 62
7
 90
5
 70
1
 10
35.622500
 20
5.051562
 10
35.938437
 20
5.051562
 10
35.938437
 20
6.318437
 10
35.306563
 20
6.318437
 10
35.306563
 20
5.051562
  0
LWPOLYLINE
  8
0
 62
7
 90
5
 70
1
 10
31.177500
 20
5.051562
 10
31.493437
 20
5.051562
 10
31.493437
 20
6.318437
 10
30.861562
 20
6.318437
 10
30.861562
 20
5.051562
  0
LWPOLYLINE
  8
0
 62
7
 90
5
 70
1
 10
-3.648438
 20
-4.000000
 10
-3.648438
 20
-4.998437
 10
-2.351562
 20
-4.998437
 10
-2.351562
 20
-3.001562
 10
-3.648438
 20
-3.001562
  0
LWPOLYLINE
  8
0
 62
7
 90
5
 70
1
 10
-1.648438
 20
-4.000000
 10
-1.648438
 20
-4.998437
 10
-0.351563
 20
-4.998437
 10
-0.351562
 20
-3.001562
 10
-1.648437
 20
-3.001562
  0
LWPOLYLINE
  8
0
 62
7
 90
5
 70
1
 10
0.351562
 20
-4.000000
 10
0.351562
 20
-4.998437
 10
1.648437
 20
-4.998437
 10
1.648438
 20
-3.001562
 10
0.351563
 20
-3.001562
  0
LWPOLYLINE
  8
0
 62
7
 90
5
 70
1
 10
2.351562
 20
-4.000000
 10
2.351562
 20
-4.998437
 10
3.648438
 20
-4.998437
 10
3.648438
 20
-3.001562
 10
2.351562
 20
-3.001562
  0
LWPOLYLINE
  8
0
 62
7
 90
5
 70
1
 10
4.351562
 20
-4.000000
 10
4.351562
 20
-4.998437
 10
5.648438
 20
-4.998437
 10
5.648438
 20
-3.001562
 10
4.351562
 20
-3.001562
  0
LWPOLYLINE
  8
0
 62
7
 90
5
 70
1
 10
6.351562
 20
-4.000000
 10
6.351562
 20
-4.998437
 10
7.648438
 20
-4.998437
 10
7.648438
 20
-3.001562
 10
6.351562
 20
-3.001562
  0
LWPOLYLINE
  8
0
 62
7
 90
5
 70
1
 10
8.351562
 20
-4.000000
 10
8.351562
 20
-4.998437
 10
9.648438
 20
-4.998437
 10
9.648438
 20
-3.001562
 10
8.351562
 20
-3.001562
  0
LWPOLYLINE
  8
0
 62
7
 90
5
 70
1
 10
10.351562
 20
-4.000000
 10
10.351562
 20
-4.998437
 10
11.648438
 20
-4.998437
 10
11.648438
 20
-3.001562
 10
10.351562
 20
-3.001562
  0
LWPOLYLINE
  8
0
 62
7
 90
5
 70
1
 10
10.351562
 20
12.000000
 10
10.351562
 20
11.001563
 10
11.648438
 20
11.001563
 10
11.648438
 20
12.998437
 10
10.351562
 20
12.998437
  0
LWPOLYLINE
  8
0
 62
7
 90
5
 70
1
 10
8.351562
 20
12.000000
 10
8.351562
 20
11.001563
 10
9.648438
 20
11.001563
 10
9.648438
 20
12.998437
 10
8.351562
 20
12.998437
  0
LWPOLYLINE
  8
0
 62
7
 90
5
 70
1
 10
6.351562
 20
12.000000
 10
6.351562
 20
11.001563
 10
7.648438
 20
11.001563
 10
7.648438
 20
12.998437
 10
6.351562
 20
12.998437
  0
LWPOLYLINE
  8
0
 62
7
 90
5
 70
1
 10
4.351562
 20
12.000000
 10
4.351562
 20
11.001563
 10
5.648438
 20
11.001563
 10
5.648438
 20
12.998437
 10
4.351562
 20
12.998437
  0
LWPOLYLINE
  8
0
 62
7
 90
5
 70
1
 10
2.351562
 20
12.000000
 10
2.351562
 20
11.001563
 10
3.648438
 20
11.001563
 10
3.648438
 20
12.998437
 10
2.351562
 20
12.998437
  0
LWPOLYLINE
  8
0
 62
7
 90
5
 70
1
 10
0.351562
 20
12.000000
 10
0.351562
 20
11.001563
 10
1.648437
 20
11.001563
 10
1.648438
 20
12.998437
 10
0.351563
 20
12.998437
  0
LWPOLYLINE
  8
0
 62
7
 90
5
 70
1
 10
-1.648438
 20
12.000000
 10
-1.648438
 20
11.001563
 10
-0.351563
 20
11.001563
 10
-0.351562
 20
12.998437
 10
-1.648437
 20
12.998437
  0
LWPOLYLINE
  8
0
 62
7
 90
5
 70
1
 10
-3.648438
 20
12.000000
 10
-3.648438
 20
11.001563
 10
-2.351562
 20
11.001563
 10
-2.351562
 20
12.998437
 10
-3.648438
 20
12.998437
  0
LWPOLYLINE
  8
0
 62
7
 90
5
 70
1
 10
-2.950000
 20
-10.096163
 10
-3.519938
 20
-10.096163
 10
-3.519938
 20
-15.173038
 10
-2.380063
 20
-15.173038
 10
-2.380063
 20
-10.096163
  0
LWPOLYLINE
  8
0
 62
7
 90
5
 70
1
 10
-7.369600
 20
-10.096163
 10
-8.511038
 20
-10.096163
 10
-8.511038
 20
-15.173038
 10
-6.228162
 20
-15.173038
 10
-6.228162
 20
-10.096163
  0
LWPOLYLINE
  8
0
 62
7
 90
5
 70
1
 10
1.469600
 20
-10.096163
 10
0.328163
 20
-10.096163
 10
0.328162
 20
-15.173038
 10
2.611038
 20
-15.173038
 10
2.611038
 20
-10.096163
  0
LWPOLYLINE
  8
0
 62
7
 90
5
 70
1
 10
12.840000
 20
3.501562
 10
13.338437
 20
3.501562
 10
13.338437
 20
3.948438
 10
12.341563
 20
3.948438
 10
12.341563
 20
3.501562
  0
LWPOLYLINE
  8
0
 62
7
 90
5
 70
1
 10
12.840000
 20
2.851562
 10
13.338437
 20
2.851562
 10
13.338437
 20
3.298438
 10
12.341563
 20
3.298438
 10
12.341563
 20
2.851562
  0
LWPOLYLINE
  8
0
 62
7
 90
5
 70
1
 10
12.840000
 20
2.201562
 10
13.338437
 20
2.201562
 10
13.338437
 20
2.648438
 10
12.341563
 20
2.648438
 10
12.341563
 20
2.201562
  0
LWPOLYLINE
  8
0
 62
7
 90
5
 70
1
 10
12.840000
 20
1.551562
 10
13.338437
 20
1.551562
 10
13.338437
 20
1.998437
 10
12.341563
 20
1.998437
 10
12.341563
 20
1.551562
  0
LWPOLYLINE
  8
0
 62
7
 90
5
 70
1
 10
16.940000
 20
1.551562
 10
17.438438
 20
1.551562
 10
17.438438
 20
1.998437
 10
16.441562
 20
1.998437
 10
16.441562
 20
1.551562
  0
LWPOLYLINE
  8
0
 62
7
 90
5
 70
1
 10
16.940000
 20
2.201562
 10
17.438438
 20
2.201562
 10
17.438438
 20
2.648438
 10
16.441562
 20
2.648438
 10
16.441562
 20
2.201562
  0
LWPOLYLINE
  8
0
 62
7
 90
5
 70
1
 10
16.940000
 20
2.851562
 10
17.438438
 20
2.851562
 10
17.438438
 20
3.298438
 10
16.441562
 20
3.298438
 10
16.441562
 20
2.851562
  0
LWPOLYLINE
  8
0
 62
7
 90
5
 70
1
 10
16.940000
 20
3.501562
 10
17.438438
 20
3.501562
 10
17.438438
 20
3.948438
 10
16.441562
 20
3.948438
 10
16.441562
 20
3.501562
  0
LWPOLYLINE
  8
0
 62
7
 90
5
 70
1
 10
13.518200
 20
23.481563
 10
14.253238
 20
23.481563
 10
14.253238
 20
23.986438
 10
12.783162
 20
23.986438
 10
12.783162
 20
23.481563
  0
LWPOLYLINE
  8
0
 62
7
 90
5
 70
1
 10
13.518200
 20
22.694163
 10
14.253238
 20
22.694163
 10
14.253238
 20
23.199037
 10
12.783162
 20
23.199037
 10
12.783162
 20
22.694163
  0
LWPOLYLINE
  8
0
 62
7
 90
5
 70
1
 10
13.518200
 20
21.881363
 10
14.253238
 20
21.881363
 10
14.253238
 20
22.386238
 10
12.783162
 20
22.386238
 10
12.783162
 20
21.881363
  0
LWPOLYLINE
  8
0
 62
7
 90
5
 70
1
 10
13.518200
 20
21.093962
 10
14.253238
 20
21.093962
 10
14.253238
 20
21.598837
 10
12.783162
 20
21.598837
 10
12.783162
 20
21.093962
  0
LWPOLYLINE
  8
0
 62
7
 90
5
 70
1
 10
13.518200
 20
20.281163
 10
14.253238
 20
20.281163
 10
14.253238
 20
20.786037
 10
12.783162
 20
20.786037
 10
12.783162
 20
20.281163
  0
LWPOLYLINE
  8
0
 62
7
 90
5
 70
1
 10
13.518200
 20
19.493763
 10
14.253238
 20
19.493763
 10
14.253238
 20
19.998638
 10
12.783162
 20
19.998638
 10
12.783162
 20
19.493763
  0
LWPOLYLINE
  8
0
 62
7
 90
5
 70
1
 10
13.518200
 20
18.680962
 10
14.253238
 20
18.680962
 10
14.253238
 20
19.185837
 10
12.783162
 20
19.185837
 10
12.783162
 20
18.680962
  0
LWPOLYLINE
  8
0
 62
7
 90
5
 70
1
 10
13.518200
 20
17.893563
 10
14.253238
 20
17.893563
 10
14.253238
 20
18.398438
 10
12.783162
 20
18.398438
 10
12.783162
 20
17.893563
  0
LWPOLYLINE
  8
0
 62
7
 90
5
 70
1
 10
14.713563
 20
16.698200
 10
14.713563
 20
15.963162
 10
15.218437
 20
15.963162
 10
15.218437
 20
17.433238
 10
14.713563
 20
17.433238
  0
LWPOLYLINE
  8
0
 62
7
 90
5
 70
1
 10
15.500962
 20
16.698200
 10
15.500962
 20
15.963162
 10
16.005837
 20
15.963162
 10
16.005837
 20
17.433238
 10
15.500962
 20
17.433238
  0
LWPOLYLINE
  8
0
 62
7
 90
5
 70
1
 10
16.313762
 20
16.698200
 10
16.313762
 20
15.963162
 10
16.818637
 20
15.963162
 10
16.818637
 20
17.433238
 10
16.313762
 20
17.433238
  0
LWPOLYLINE
  8
0
 62
7
 90
5
 70
1
 10
17.101163
 20
16.698200
 10
17.101163
 20
15.963162
 10
17.606037
 20
15.963162
 10
17.606037
 20
17.433238
 10
17.101163
 20
17.433238
  0
LWPOLYLINE
  8
0
 62
7
 90
5
 70
1
 10
17.913963
 20
16.698200
 10
17.913963
 20
15.963162
 10
18.418837
 20
15.963162
 10
18.418837
 20
17.433238
 10
17.913963
 20
17.433238
  0
LWPOLYLINE
  8
0
 62
7
 90
5
 70
1
 10
18.701363
 20
16.698200
 10
18.701363
 20
15.963162
 10
19.206238
 20
15.963162
 10
19.206238
 20
17.433238
 10
18.701363
 20
17.433238
  0
LWPOLYLINE
  8
0
 62
7
 90
5
 70
1
 10
19.514163
 20
16.698200
 10
19.514163
 20
15.963162
 10
20.019037
 20
15.963162
 10
20.019037
 20
17.433238
 10
19.514163
 20
17.433238
  0
LWPOLYLINE
  8
0
 62
7
 90
5
 70
1
 10
20.301562
 20
16.698200
 10
20.301562
 20
15.963162
 10
20.806437
 20
15.963162
 10
20.806437
 20
17.433238
 10
20.301562
 20
17.433238
  0
LWPOLYLINE
  8
0
 62
7
 90
5
 70
1
 10
22.001800
 20
17.893563
 10
22.736838
 20
17.893563
 10
22.736838
 20
18.398438
 10
21.266762
 20
18.398438
 10
21.266762
 20
17.893563
  0
LWPOLYLINE
  8
0
 62
7
 90
5
 70
1
 10
22.001800
 20
18.680962
 10
22.736838
 20
18.680962
 10
22.736838
 20
19.185837
 10
21.266762
 20
19.185837
 10
21.266762
 20
18.680962
  0
LWPOLYLINE
  8
0
 62
7
 90
5
 70
1
 10
22.001800
 20
19.493763
 10
22.736838
 20
19.493763
 10
22.736838
 20
19.998638
 10
21.266762
 20
19.998638
 10
21.266762
 20
19.493763
  0
LWPOLYLINE
  8
0
 62
7
 90
5
 70
1
 10
22.001800
 20
20.281163
 10
22.736838
 20
20.281163
 10
22.736838
 20
20.786037
 10
21.266762
 20
20.786037
 10
21.266762
 20
20.281163
  0
LWPOLYLINE
  8
0
 62
7
 90
5
 70
1
 10
22.001800
 20
21.093962
 10
22.736838
 20
21.093962
 10
22.736838
 20
21.598837
 10
21.266762
 20
21.598837
 10
21.266762
 20
21.093962
  0
LWPOLYLINE
  8
0
 62
7
 90
5
 70
1
 10
22.001800
 20
21.881363
 10
22.736838
 20
21.881363
 10
22.736838
 20
22.386238
 10
21.266762
 20
22.386238
 10
21.266762
 20
21.881363
  0
LWPOLYLINE
  8
0
 62
7
 90
5
 70
1
 10
22.001800
 20
22.694163
 10
22.736838
 20
22.694163
 10
22.736838
 20
23.199037
 10
21.266762
 20
23.199037
 10
21.266762
 20
22.694163
  0
LWPOLYLINE
  8
0
 62
7
 90
5
 70
1
 10
22.001800
 20
23.481563
 10
22.736838
 20
23.481563
 10
22.736838
 20
23.986438
 10
21.266762
 20
23.986438
 10
21.266762
 20
23.481563
  0
LWPOLYLINE
  8
0
 62
7
 90
5
 70
1
 10
20.301562
 20
25.181800
 10
20.301562
 20
24.446762
 10
20.806437
 20
24.446762
 10
20.806437
 20
25.916837
 10
20.301562
 20
25.916837
  0
LWPOLYLINE
  8
0
 62
7
 90
5
 70
1
 10
19.514163
 20
25.181800
 10
19.514163
 20
24.446762
 10
20.019037
 20
24.446762
 10
20.019037
 20
25.916837
 10
19.514163
 20
25.916837
  0
LWPOLYLINE
  8
0
 62
7
 90
5
 70
1
 10
18.701363
 20
25.181800
 10
18.701363
 20
24.446762
 10
19.206238
 20
24.446762
 10
19.206238
 20
25.916837
 10
18.701363
 20
25.916837
  0
LWPOLYLINE
  8
0
 62
7
 90
5
 70
1
 10
17.913963
 20
25.181800
 10
17.913963
 20
24.446762
 10
18.418837
 20
24.446762
 10
18.418837
 20
25.916837
 10
17.913963
 20
25.916837
  0
LWPOLYLINE
  8
0
 62
7
 90
5
 70
1
 10
17.101163
 20
25.181800
 10
17.101163
 20
24.446762
 10
17.606037
 20
24.446762
 10
17.606037
 20
25.916837
 10
17.101163
 20
25.916837
  0
LWPOLYLINE
  8
0
 62
7
 90
5
 70
1
 10
16.313762
 20
25.181800
 10
16.313762
 20
24.446762
 10
16.818637
 20
24.446762
 10
16.818637
 20
25.916837
 10
16.313762
 20
25.916837
  0
LWPOLYLINE
  8
0
 62
7
 90
5
 70
1
 10
15.500962
 20
25.181800
 10
15.500962
 20
24.446762
 10
16.005837
 20
24.446762
 10
16.005837
 20
25.916837
 10
15.500962
 20
25.916837
  0
LWPOLYLINE
  8
0
 62
7
 90
5
 70
1
 10
14.713563
 20
25.181800
 10
14.713563
 20
24.446762
 10
15.218437
 20
24.446762
 10
15.218437
 20
25.916837
 10
14.713563
 20
25.916837
  0
LWPOLYLINE
  8
0
 62
7
 90
5
 70
1
 10
-2.331562
 20
27.570000
 10
-2.331562
 20
28.318438
 10
-3.128437
 20
28.318438
 10
-3.128437
 20
26.821562
 10
-2.331562
 20
26.821562
  0
LWPOLYLINE
  8
0
 62
7
 90
5
 70
1
 10
-1.231562
 20
27.170000
 10
-1.231562
 20
27.918438
 10
-2.028437
 20
27.918438
 10
-2.028437
 20
26.421563
 10
-1.231562
 20
26.421563
  0
LWPOLYLINE
  8
0
 62
7
 90
5
 70
1
 10
-0.131563
 20
27.570000
 10
-0.131563
 20
28.318438
 10
-0.928438
 20
28.318438
 10
-0.928438
 20
26.821562
 10
-0.131563
 20
26.821562
  0
LWPOLYLINE
  8
0
 62
7
 90
5
 70
1
 10
0.968437
 20
27.770000
 10
0.968437
 20
28.518438
 10
0.171562
 20
28.518438
 10
0.171562
 20
27.021562
 10
0.968437
 20
27.021562
  0
LWPOLYLINE
  8
0
 62
7
 90
5
 70
1
 10
2.068437
 20
27.570000
 10
2.068437
 20
28.318438
 10
1.271562
 20
28.318438
 10
1.271562
 20
26.821562
 10
2.068437
 20
26.821562
  0
LWPOLYLINE
  8
0
 62
7
 90
5
 70
1
 10
3.168438
 20
27.770000
 10
3.168438
 20
28.518438
 10
2.371563
 20
28.518438
 10
2.371563
 20
27.021562
 10
3.168438
 20
27.021562
  0
LWPOLYLINE
  8
0
 62
7
 90
5
 70
1
 10
4.268438
 20
27.570000
 10
4.268438
 20
28.318438
 10
3.471563
 20
28.318438
 10
3.471563
 20
26.821562
 10
4.268438
 20
26.821562
  0
LWPOLYLINE
  8
0
 62
7
 90
5
 70
1
 10
5.368437
 20
27.570000
 10
5.368437
 20
28.318438
 10
4.571562
 20
28.318438
 10
4.571562
 20
26.821562
 10
5.368437
 20
26.821562
  0
LWPOLYLINE
  8
0
 62
7
 90
5
 70
1
 10
5.058438
 20
17.270000
 10
5.058438
 20
17.968438
 10
3.261563
 20
17.968438
 10
3.261563
 20
16.571562
 10
5.058438
 20
16.571562
  0
LWPOLYLINE
  8
0
 62
7
 90
5
 70
1
 10
-0.641563
 20
17.270000
 10
-0.641563
 20
17.968438
 10
-2.438438
 20
17.968438
 10
-2.438438
 20
16.571562
 10
-0.641563
 20
16.571562
  0
LWPOLYLINE
  8
0
 62
7
 90
5
 70
1
 10
-6.691562
 20
31.420000
 10
-6.691562
 20
32.368437
 10
-8.088437
 20
32.368437
 10
-8.088437
 20
30.471563
 10
-6.691562
 20
30.471563
  0
LWPOLYLINE
  8
0
 62
7
 90
5
 70
1
 10
6.458437
 20
30.420000
 10
6.458437
 20
31.368438
 10
5.061562
 20
31.368438
 10
5.061562
 20
29.471563
 10
6.458437
 20
29.471563
  0
LWPOLYLINE
  8
0
 62
7
 90
5
 70
1
 10
38.584562
 20
28.508500
 10
38.584562
 20
28.360063
 10
39.381437
 20
28.360063
 10
39.381437
 20
28.656938
 10
38.584562
 20
28.656938
  0
LWPOLYLINE
  8
0
 62
7
 90
5
 70
1
 10
38.584562
 20
28.008500
 10
38.584562
 20
27.860063
 10
39.381437
 20
27.860063
 10
39.381437
 20
28.156938
 10
38.584562
 20
28.156938
  0
LWPOLYLINE
  8
0
 62
7
 90
5
 70
1
 10
38.584562
 20
27.508500
 10
38.584562
 20
27.360063
 10
39.381437
 20
27.360063
 10
39.381437
 20
27.656938
 10
38.584562
 20
27.656938
  0
LWPOLYLINE
  8
0
 62
7
 90
5
 70
1
 10
38.584562
 20
27.008500
 10
38.584562
 20
26.860063
 10
39.381437
 20
26.860063
 10
39.381437
 20
27.156938
 10
38.584562
 20
27.156938
  0
LWPOLYLINE
  8
0
 62
7
 90
5
 70
1
 10
38.584562
 20
26.508500
 10
38.584562
 20
26.360063
 10
39.381437
 20
26.360063
 10
39.381437
 20
26.656938
 10
38.584562
 20
26.656938
  0
LWPOLYLINE
  8
0
 62
7
 90
5
 70
1
 10
38.584562
 20
26.008500
 10
38.584562
 20
25.860063
 10
39.381437
 20
25.860063
 10
39.381437
 20
26.156938
 10
38.584562
 20
26.156938
  0
LWPOLYLINE
  8
0
 62
7
 90
5
 70
1
 10
39.733000
 20
25.656938
 10
39.584562
 20
25.656938
 10
39.584562
 20
24.860063
 10
39.881437
 20
24.860063
 10
39.881437
 20
25.656938
  0
LWPOLYLINE
  8
0
 62
7
 90
5
 70
1
 10
40.233000
 20
25.656938
 10
40.084562
 20
25.656938
 10
40.084562
 20
24.860063
 10
40.381437
 20
24.860063
 10
40.381437
 20
25.656938
  0
LWPOLYLINE
  8
0
 62
7
 90
5
 70
1
 10
40.733000
 20
25.656938
 10
40.584562
 20
25.656938
 10
40.584562
 20
24.860063
 10
40.881437
 20
24.860063
 10
40.881437
 20
25.656938
  0
LWPOLYLINE
  8
0
 62
7
 90
5
 70
1
 10
41.233000
 20
25.656938
 10
41.084562
 20
25.656938
 10
41.084562
 20
24.860063
 10
41.381437
 20
24.860063
 10
41.381437
 20
25.656938
  0
LWPOLYLINE
  8
0
 62
7
 90
5
 70
1
 10
41.733000
 20
25.656938
 10
41.584562
 20
25.656938
 10
41.584562
 20
24.860063
 10
41.881437
 20
24.860063
 10
41.881437
 20
25.656938
  0
LWPOLYLINE
  8
0
 62
7
 90
5
 70
1
 10
42.233000
 20
25.656938
 10
42.084562
 20
25.656938
 10
42.084562
 20
24.860063
 10
42.381437
 20
24.860063
 10
42.381437
 20
25.656938
  0
LWPOLYLINE
  8
0
 62
7
 90
5
 70
1
 10
43.381437
 20
26.008500
 10
43.381437
 20
26.156938
 10
42.584562
 20
26.156938
 10
42.584562
 20
25.860063
 10
43.381437
 20
25.860063
  0
LWPOLYLINE
  8
0
 62
7
 90
5
 70
1
 10
43.381437
 20
26.508500
 10
43.381437
 20
26.656938
 10
42.584562
 20
26.656938
 10
42.584562
 20
26.360063
 10
43.381437
 20
26.360063
  0
LWPOLYLINE
  8
0
 62
7
 90
5
 70
1
 10
43.381437
 20
27.008500
 10
43.381437
 20
27.156938
 10
42.584562
 20
27.156938
 10
42.584562
 20
26.860063
 10
43.381437
 20
26.860063
  0
LWPOLYLINE
  8
0
 62
7
 90
5
 70
1
 10
43.381437
 20
27.508500
 10
43.381437
 20
27.656938
 10
42.584562
 20
27.656938
 10
42.584562
 20
27.360063
 10
43.381437
 20
27.360063
  0
LWPOLYLINE
  8
0
 62
7
 90
5
 70
1
 10
43.381437
 20
28.008500
 10
43.381437
 20
28.156938
 10
42.584562
 20
28.156938
 10
42.584562
 20
27.860063
 10
43.381437
 20
27.860063
  0
LWPOLYLINE
  8
0
 62
7
 90
5
 70
1
 10
43.381437
 20
28.508500
 10
43.381437
 20
28.656938
 10
42.584562
 20
28.656938
 10
42.584562
 20
28.360063
 10
43.381437
 20
28.360063
  0
LWPOLYLINE
  8
0
 62
7
 90
5
 70
1
 10
42.233000
 20
28.860063
 10
42.381437
 20
28.860063
 10
42.381437
 20
29.656938
 10
42.084562
 20
29.656938
 10
42.084562
 20
28.860063
  0
LWPOLYLINE
  8
0
 62
7
 90
5
 70
1
 10
41.733000
 20
28.860063
 10
41.881437
 20
28.860063
 10
41.881437
 20
29.656938
 10
41.584562
 20
29.656938
 10
41.584562
 20
28.860063
  0
LWPOLYLINE
  8
0
 62
7
 90
5
 70
1
 10
41.233000
 20
28.860063
 10
41.381437
 20
28.860063
 10
41.381437
 20
29.656938
 10
41.084562
 20
29.656938
 10
41.084562
 20
28.860063
  0
LWPOLYLINE
  8
0
 62
7
 90
5
 70
1
 10
40.733000
 20
28.860063
 10
40.881437
 20
28.860063
 10
40.881437
 20
29.656938
 10
40.584562
 20
29.656938
 10
40.584562
 20
28.860063
  0
LWPOLYLINE
  8
0
 62
7
 90
5
 70
1
 10
40.233000
 20
28.860063
 10
40.381437
 20
28.860063
 10
40.381437
 20
29.656938
 10
40.084562
 20
29.656938
 10
40.084562
 20
28.860063
  0
LWPOLYLINE
  8
0
 62
7
 90
5
 70
1
 10
39.733000
 20
28.860063
 10
39.881437
 20
28.860063
 10
39.881437
 20
29.656938
 10
39.584562
 20
29.656938
 10
39.584562
 20
28.860063
  0
LWPOLYLINE
  8
0
 62
7
 90
5
 70
1
 10
40.819600
 20
-9.996162
 10
39.678162
 20
-9.996162
 10
39.678162
 20
-15.073037
 10
41.961038
 20
-15.073037
 10
41.961038
 20
-9.996162
  0
LWPOLYLINE
  8
0
 62
7
 90
5
 70
1
 10
31.980400
 20
-9.996162
 10
30.838963
 20
-9.996162
 10
30.838963
 20
-15.073037
 10
33.121837
 20
-15.073037
 10
33.121837
 20
-9.996162
  0
LWPOLYLINE
  8
0
 62
7
 90
5
 70
1
 10
9.100000
 20
17.248438
 10
8.101562
 20
17.248438
 10
8.101562
 20
15.951563
 10
10.098437
 20
15.951563
 10
10.098437
 20
17.248438
  0
LWPOLYLINE
  8
0
 62
7
 90
5
 70
1
 10
9.100000
 20
21.048437
 10
8.101562
 20
21.048437
 10
8.101562
 20
19.751562
 10
10.098437
 20
19.751562
 10
10.098437
 20
21.048437
  0
ENDSEC
  0
EOF
