  0
SECTION
  2
HEADER
  9
$ACADVER
  1
AC1009
  9
$MEASUREMENT
 70
     1
  0
ENDSEC
  0
SECTION
  2
ENTITIES
  0
LWPOLYLINE
  8
0
 62
7
 90
5
 70
1
 10
36.251563
 20
36.000000
 10
36.251563
 20
33.501562
 10
40.898438
 20
33.501562
 10
40.898438
 20
38.498438
 10
36.251563
 20
38.498438
  0
LWPOLYLINE
  8
0
 62
7
 90
5
 70
1
 10
29.401563
 20
36.000000
 10
29.401563
 20
33.501562
 10
34.048437
 20
33.501562
 10
34.048437
 20
38.498438
 10
29.401563
 20
38.498438
  0
LWPOLYLINE
  8
0
 62
7
 90
5
 70
1
 10
-7.369600
 20
-10.096163
 10
-8.511038
 20
-10.096163
 10
-8.511038
 20
-15.173038
 10
-6.228162
 20
-15.173038
 10
-6.228162
 20
-10.096163
  0
LWPOLYLINE
  8
0
 62
7
 90
5
 70
1
 10
1.469600
 20
-10.096163
 10
0.328163
 20
-10.096163
 10
0.328162
 20
-15.173038
 10
2.611038
 20
-15.173038
 10
2.611038
 20
-10.096163
  0
LWPOLYLINE
  8
0
 62
7
 90
5
 70
1
 10
36.400000
 20
-9.996162
 10
35.830062
 20
-9.996162
 10
35.830062
 20
-15.073037
 10
36.969938
 20
-15.073037
 10
36.969938
 20
-9.996162
  0
LWPOLYLINE
  8
0
 62
7
 90
5
 70
1
 10
40.819600
 20
-9.996162
 10
39.678162
 20
-9.996162
 10
39.678162
 20
-15.073037
 10
41.961038
 20
-15.073037
 10
41.961038
 20
-9.996162
  0
LWPOLYLINE
  8
0
 62
7
 90
5
 70
1
 10
31.980400
 20
-9.996162
 10
30.838963
 20
-9.996162
 10
30.838963
 20
-15.073037
 10
33.121837
 20
-15.073037
 10
33.121837
 20
-9.996162
  0
ENDSEC
  0
EOF
