G75*
%MOIN*%
%OFA0B0*%
%FSLAX24Y24*%
%IPPOS*%
%LPD*%
%AMOC8*
5,1,8,0,0,1.08239X$1,22.5*
%
%ADD10C,0.0000*%
%ADD11R,0.0315X0.0709*%
%ADD12R,0.0276X0.0709*%
%ADD13R,0.0580X0.0200*%
%ADD14R,0.0200X0.0580*%
%ADD15R,0.0433X0.0394*%
%ADD16R,0.0354X0.0315*%
%ADD17R,0.0394X0.0433*%
%ADD18R,0.0315X0.0315*%
%ADD19C,0.0091*%
%ADD20R,0.0226X0.0098*%
%ADD21R,0.0404X0.0256*%
%ADD22R,0.0091X0.0270*%
%ADD23R,0.0472X0.0315*%
%ADD24R,0.0315X0.0472*%
%ADD25R,0.0512X0.0787*%
%ADD26R,0.0450X0.2000*%
%ADD27R,0.0900X0.2000*%
%ADD28R,0.0394X0.0177*%
%ADD29R,0.0709X0.0551*%
%ADD30R,0.0551X0.0748*%
%ADD31R,0.0315X0.0591*%
%ADD32R,0.0787X0.0512*%
%ADD33C,0.0050*%
%ADD34R,0.0250X0.0500*%
%ADD35R,0.0315X0.1969*%
%ADD36R,0.1831X0.1969*%
%ADD37R,0.0315X0.0118*%
%ADD38R,0.0118X0.0315*%
%ADD39R,0.1181X0.0630*%
%ADD40R,0.2250X0.1900*%
D10*
X000180Y000185D02*
X000180Y021839D01*
X023802Y021839D01*
X023802Y000185D01*
X000180Y000185D01*
X001937Y000500D02*
X006337Y000500D01*
X006775Y000972D02*
X006777Y001016D01*
X006783Y001060D01*
X006793Y001103D01*
X006806Y001145D01*
X006824Y001185D01*
X006845Y001224D01*
X006869Y001261D01*
X006896Y001296D01*
X006927Y001328D01*
X006960Y001357D01*
X006996Y001383D01*
X007034Y001405D01*
X007074Y001424D01*
X007115Y001440D01*
X007158Y001452D01*
X007201Y001460D01*
X007245Y001464D01*
X007289Y001464D01*
X007333Y001460D01*
X007376Y001452D01*
X007419Y001440D01*
X007460Y001424D01*
X007500Y001405D01*
X007538Y001383D01*
X007574Y001357D01*
X007607Y001328D01*
X007638Y001296D01*
X007665Y001261D01*
X007689Y001224D01*
X007710Y001185D01*
X007728Y001145D01*
X007741Y001103D01*
X007751Y001060D01*
X007757Y001016D01*
X007759Y000972D01*
X007757Y000928D01*
X007751Y000884D01*
X007741Y000841D01*
X007728Y000799D01*
X007710Y000759D01*
X007689Y000720D01*
X007665Y000683D01*
X007638Y000648D01*
X007607Y000616D01*
X007574Y000587D01*
X007538Y000561D01*
X007500Y000539D01*
X007460Y000520D01*
X007419Y000504D01*
X007376Y000492D01*
X007333Y000484D01*
X007289Y000480D01*
X007245Y000480D01*
X007201Y000484D01*
X007158Y000492D01*
X007115Y000504D01*
X007074Y000520D01*
X007034Y000539D01*
X006996Y000561D01*
X006960Y000587D01*
X006927Y000616D01*
X006896Y000648D01*
X006869Y000683D01*
X006845Y000720D01*
X006824Y000759D01*
X006806Y000799D01*
X006793Y000841D01*
X006783Y000884D01*
X006777Y000928D01*
X006775Y000972D01*
X017429Y000539D02*
X021829Y000539D01*
X022523Y000972D02*
X022525Y001016D01*
X022531Y001060D01*
X022541Y001103D01*
X022554Y001145D01*
X022572Y001185D01*
X022593Y001224D01*
X022617Y001261D01*
X022644Y001296D01*
X022675Y001328D01*
X022708Y001357D01*
X022744Y001383D01*
X022782Y001405D01*
X022822Y001424D01*
X022863Y001440D01*
X022906Y001452D01*
X022949Y001460D01*
X022993Y001464D01*
X023037Y001464D01*
X023081Y001460D01*
X023124Y001452D01*
X023167Y001440D01*
X023208Y001424D01*
X023248Y001405D01*
X023286Y001383D01*
X023322Y001357D01*
X023355Y001328D01*
X023386Y001296D01*
X023413Y001261D01*
X023437Y001224D01*
X023458Y001185D01*
X023476Y001145D01*
X023489Y001103D01*
X023499Y001060D01*
X023505Y001016D01*
X023507Y000972D01*
X023505Y000928D01*
X023499Y000884D01*
X023489Y000841D01*
X023476Y000799D01*
X023458Y000759D01*
X023437Y000720D01*
X023413Y000683D01*
X023386Y000648D01*
X023355Y000616D01*
X023322Y000587D01*
X023286Y000561D01*
X023248Y000539D01*
X023208Y000520D01*
X023167Y000504D01*
X023124Y000492D01*
X023081Y000484D01*
X023037Y000480D01*
X022993Y000480D01*
X022949Y000484D01*
X022906Y000492D01*
X022863Y000504D01*
X022822Y000520D01*
X022782Y000539D01*
X022744Y000561D01*
X022708Y000587D01*
X022675Y000616D01*
X022644Y000648D01*
X022617Y000683D01*
X022593Y000720D01*
X022572Y000759D01*
X022554Y000799D01*
X022541Y000841D01*
X022531Y000884D01*
X022525Y000928D01*
X022523Y000972D01*
X022523Y020657D02*
X022525Y020701D01*
X022531Y020745D01*
X022541Y020788D01*
X022554Y020830D01*
X022572Y020870D01*
X022593Y020909D01*
X022617Y020946D01*
X022644Y020981D01*
X022675Y021013D01*
X022708Y021042D01*
X022744Y021068D01*
X022782Y021090D01*
X022822Y021109D01*
X022863Y021125D01*
X022906Y021137D01*
X022949Y021145D01*
X022993Y021149D01*
X023037Y021149D01*
X023081Y021145D01*
X023124Y021137D01*
X023167Y021125D01*
X023208Y021109D01*
X023248Y021090D01*
X023286Y021068D01*
X023322Y021042D01*
X023355Y021013D01*
X023386Y020981D01*
X023413Y020946D01*
X023437Y020909D01*
X023458Y020870D01*
X023476Y020830D01*
X023489Y020788D01*
X023499Y020745D01*
X023505Y020701D01*
X023507Y020657D01*
X023505Y020613D01*
X023499Y020569D01*
X023489Y020526D01*
X023476Y020484D01*
X023458Y020444D01*
X023437Y020405D01*
X023413Y020368D01*
X023386Y020333D01*
X023355Y020301D01*
X023322Y020272D01*
X023286Y020246D01*
X023248Y020224D01*
X023208Y020205D01*
X023167Y020189D01*
X023124Y020177D01*
X023081Y020169D01*
X023037Y020165D01*
X022993Y020165D01*
X022949Y020169D01*
X022906Y020177D01*
X022863Y020189D01*
X022822Y020205D01*
X022782Y020224D01*
X022744Y020246D01*
X022708Y020272D01*
X022675Y020301D01*
X022644Y020333D01*
X022617Y020368D01*
X022593Y020405D01*
X022572Y020444D01*
X022554Y020484D01*
X022541Y020526D01*
X022531Y020569D01*
X022525Y020613D01*
X022523Y020657D01*
X002838Y020657D02*
X002840Y020701D01*
X002846Y020745D01*
X002856Y020788D01*
X002869Y020830D01*
X002887Y020870D01*
X002908Y020909D01*
X002932Y020946D01*
X002959Y020981D01*
X002990Y021013D01*
X003023Y021042D01*
X003059Y021068D01*
X003097Y021090D01*
X003137Y021109D01*
X003178Y021125D01*
X003221Y021137D01*
X003264Y021145D01*
X003308Y021149D01*
X003352Y021149D01*
X003396Y021145D01*
X003439Y021137D01*
X003482Y021125D01*
X003523Y021109D01*
X003563Y021090D01*
X003601Y021068D01*
X003637Y021042D01*
X003670Y021013D01*
X003701Y020981D01*
X003728Y020946D01*
X003752Y020909D01*
X003773Y020870D01*
X003791Y020830D01*
X003804Y020788D01*
X003814Y020745D01*
X003820Y020701D01*
X003822Y020657D01*
X003820Y020613D01*
X003814Y020569D01*
X003804Y020526D01*
X003791Y020484D01*
X003773Y020444D01*
X003752Y020405D01*
X003728Y020368D01*
X003701Y020333D01*
X003670Y020301D01*
X003637Y020272D01*
X003601Y020246D01*
X003563Y020224D01*
X003523Y020205D01*
X003482Y020189D01*
X003439Y020177D01*
X003396Y020169D01*
X003352Y020165D01*
X003308Y020165D01*
X003264Y020169D01*
X003221Y020177D01*
X003178Y020189D01*
X003137Y020205D01*
X003097Y020224D01*
X003059Y020246D01*
X003023Y020272D01*
X002990Y020301D01*
X002959Y020333D01*
X002932Y020368D01*
X002908Y020405D01*
X002887Y020444D01*
X002869Y020484D01*
X002856Y020526D01*
X002846Y020569D01*
X002840Y020613D01*
X002838Y020657D01*
D11*
X016512Y018748D03*
X016945Y018748D03*
X017378Y018748D03*
X017811Y018748D03*
X018245Y018748D03*
X018678Y018748D03*
X019111Y018748D03*
X019111Y015008D03*
X018678Y015008D03*
X018245Y015008D03*
X017811Y015008D03*
X017378Y015008D03*
X016945Y015008D03*
X016512Y015008D03*
D12*
X016099Y015008D03*
X019524Y015008D03*
X019524Y018748D03*
X016099Y018748D03*
D13*
X013960Y015828D03*
X013960Y015518D03*
X013960Y015198D03*
X013960Y014888D03*
X013960Y014568D03*
X013960Y014258D03*
X013960Y013938D03*
X013960Y013628D03*
X010620Y013628D03*
X010620Y013938D03*
X010620Y014258D03*
X010620Y014568D03*
X010620Y014888D03*
X010620Y015198D03*
X010620Y015518D03*
X010620Y015828D03*
D14*
X011190Y016398D03*
X011500Y016398D03*
X011820Y016398D03*
X012130Y016398D03*
X012450Y016398D03*
X012760Y016398D03*
X013080Y016398D03*
X013390Y016398D03*
X013390Y013058D03*
X013080Y013058D03*
X012760Y013058D03*
X012450Y013058D03*
X012130Y013058D03*
X011820Y013058D03*
X011500Y013058D03*
X011190Y013058D03*
D15*
X008940Y012311D03*
X008271Y012311D03*
X008271Y015224D03*
X008940Y015224D03*
X012759Y010657D03*
X013428Y010657D03*
X013428Y009831D03*
X012759Y009831D03*
X014019Y009831D03*
X014688Y009831D03*
X014530Y010697D03*
X015200Y010697D03*
X016105Y011878D03*
X016774Y011878D03*
X017483Y013728D03*
X018152Y013728D03*
X020843Y015618D03*
X021513Y015618D03*
X021550Y013350D03*
X022219Y013350D03*
X022435Y019379D03*
X023104Y019379D03*
X011495Y008630D03*
X010826Y008630D03*
X001656Y015736D03*
X000987Y015736D03*
D16*
X018960Y013650D03*
X018960Y012902D03*
X019786Y013276D03*
D17*
X017975Y013020D03*
X017975Y012350D03*
X012070Y010874D03*
X012070Y010205D03*
X012719Y006189D03*
X012719Y005520D03*
X016145Y005559D03*
X016145Y006228D03*
X002582Y006504D03*
X002582Y005835D03*
D18*
X011460Y009634D03*
X012050Y009634D03*
D19*
X013759Y006219D03*
X013956Y006219D03*
X014152Y006219D03*
X014349Y006219D03*
X014546Y006219D03*
X014546Y005301D03*
X014349Y005301D03*
X014152Y005301D03*
X013956Y005301D03*
X013759Y005301D03*
X018058Y005301D03*
X018255Y005301D03*
X018452Y005301D03*
X018649Y005301D03*
X018845Y005301D03*
X018845Y006219D03*
X018649Y006219D03*
X018452Y006219D03*
X018255Y006219D03*
X018058Y006219D03*
D20*
X017817Y005868D03*
X017817Y005652D03*
X019086Y005652D03*
X019086Y005868D03*
X014787Y005868D03*
X014787Y005652D03*
X013518Y005652D03*
X013518Y005868D03*
D21*
X013892Y005947D03*
X013892Y005573D03*
X014413Y005573D03*
X014413Y005947D03*
X018191Y005947D03*
X018191Y005573D03*
X018712Y005573D03*
X018712Y005947D03*
D22*
X018649Y006353D03*
X018845Y006353D03*
X018452Y006353D03*
X018255Y006353D03*
X018058Y006353D03*
X018058Y005166D03*
X018255Y005166D03*
X018452Y005166D03*
X018649Y005166D03*
X018845Y005166D03*
X014546Y005166D03*
X014349Y005166D03*
X014152Y005166D03*
X013956Y005166D03*
X013759Y005166D03*
X013759Y006353D03*
X013956Y006353D03*
X014152Y006353D03*
X014349Y006353D03*
X014546Y006353D03*
D23*
X017030Y006248D03*
X017030Y005539D03*
X016322Y009358D03*
X016322Y010067D03*
X015456Y010067D03*
X015456Y009358D03*
X011834Y006248D03*
X011834Y005539D03*
D24*
X012149Y004870D03*
X012857Y004870D03*
X016282Y004417D03*
X016991Y004417D03*
D25*
X009629Y004909D03*
X008841Y004909D03*
X008054Y004909D03*
X007267Y004909D03*
X006479Y004909D03*
X005692Y004909D03*
X004904Y004909D03*
X004117Y004909D03*
X004117Y011209D03*
X004904Y011209D03*
X005692Y011209D03*
X006479Y011209D03*
X007267Y011209D03*
X008054Y011209D03*
X008841Y011209D03*
X009629Y011209D03*
D26*
X004137Y001510D03*
D27*
X005877Y001510D03*
X002397Y001510D03*
X017889Y001549D03*
X021369Y001549D03*
D28*
X011967Y007183D03*
X011967Y007439D03*
X011967Y007695D03*
X011967Y007951D03*
X010353Y007951D03*
X010353Y007695D03*
X010353Y007439D03*
X010353Y007183D03*
D29*
X006936Y013283D03*
X004692Y013283D03*
D30*
X007566Y018461D03*
X002389Y018854D03*
D31*
X004223Y017339D03*
X004656Y017181D03*
X005089Y017339D03*
X005523Y017417D03*
X005956Y017339D03*
X006389Y017417D03*
X006822Y017339D03*
X007255Y017339D03*
D32*
X008881Y014516D03*
X008881Y013020D03*
D33*
X013649Y008972D02*
X013649Y006972D01*
X014336Y006972D01*
X014336Y007254D01*
X014249Y007261D01*
X014165Y007284D01*
X014086Y007321D01*
X014015Y007371D01*
X013953Y007432D01*
X013903Y007504D01*
X013866Y007583D01*
X013844Y007667D01*
X013836Y007754D01*
X013836Y008222D01*
X013844Y008309D01*
X013866Y008393D01*
X013903Y008472D01*
X013953Y008544D01*
X014015Y008605D01*
X014086Y008655D01*
X014165Y008692D01*
X014249Y008715D01*
X014336Y008722D01*
X014336Y008972D01*
X013649Y008972D01*
X013649Y008958D02*
X014336Y008958D01*
X014336Y008909D02*
X013649Y008909D01*
X013649Y008861D02*
X014336Y008861D01*
X014336Y008812D02*
X013649Y008812D01*
X013649Y008764D02*
X014336Y008764D01*
X014254Y008715D02*
X013649Y008715D01*
X013649Y008667D02*
X014110Y008667D01*
X014033Y008618D02*
X013649Y008618D01*
X013649Y008570D02*
X013979Y008570D01*
X013937Y008521D02*
X013649Y008521D01*
X013649Y008473D02*
X013903Y008473D01*
X013881Y008424D02*
X013649Y008424D01*
X013649Y008376D02*
X013861Y008376D01*
X013848Y008327D02*
X013649Y008327D01*
X013649Y008279D02*
X013841Y008279D01*
X013837Y008230D02*
X013649Y008230D01*
X013649Y008182D02*
X013836Y008182D01*
X013836Y008133D02*
X013649Y008133D01*
X013649Y008085D02*
X013836Y008085D01*
X013836Y008036D02*
X013649Y008036D01*
X013649Y007988D02*
X013836Y007988D01*
X013836Y007939D02*
X013649Y007939D01*
X013649Y007891D02*
X013836Y007891D01*
X013836Y007842D02*
X013649Y007842D01*
X013649Y007794D02*
X013836Y007794D01*
X013837Y007745D02*
X013649Y007745D01*
X013649Y007697D02*
X013841Y007697D01*
X013849Y007648D02*
X013649Y007648D01*
X013649Y007600D02*
X013862Y007600D01*
X013881Y007551D02*
X013649Y007551D01*
X013649Y007503D02*
X013904Y007503D01*
X013938Y007454D02*
X013649Y007454D01*
X013649Y007406D02*
X013980Y007406D01*
X014034Y007357D02*
X013649Y007357D01*
X013649Y007309D02*
X014112Y007309D01*
X014261Y007260D02*
X013649Y007260D01*
X013649Y007212D02*
X014336Y007212D01*
X014336Y007163D02*
X013649Y007163D01*
X013649Y007115D02*
X014336Y007115D01*
X014336Y007066D02*
X013649Y007066D01*
X013649Y007018D02*
X014336Y007018D01*
X014961Y007018D02*
X015649Y007018D01*
X015649Y006972D02*
X014961Y006972D01*
X014961Y007254D01*
X015042Y007261D01*
X015121Y007282D01*
X015195Y007316D01*
X015262Y007363D01*
X015320Y007421D01*
X015367Y007488D01*
X015401Y007562D01*
X015423Y007641D01*
X015430Y007722D01*
X015430Y008222D01*
X015423Y008304D01*
X015401Y008383D01*
X015367Y008457D01*
X015320Y008524D01*
X015262Y008582D01*
X015195Y008628D01*
X015121Y008663D01*
X015042Y008684D01*
X014961Y008691D01*
X014961Y008972D01*
X015649Y008972D01*
X015649Y006972D01*
X015649Y007066D02*
X014961Y007066D01*
X014961Y007115D02*
X015649Y007115D01*
X015649Y007163D02*
X014961Y007163D01*
X014961Y007212D02*
X015649Y007212D01*
X015649Y007260D02*
X015036Y007260D01*
X015179Y007309D02*
X015649Y007309D01*
X015649Y007357D02*
X015254Y007357D01*
X015305Y007406D02*
X015649Y007406D01*
X015649Y007454D02*
X015343Y007454D01*
X015374Y007503D02*
X015649Y007503D01*
X015649Y007551D02*
X015396Y007551D01*
X015412Y007600D02*
X015649Y007600D01*
X015649Y007648D02*
X015423Y007648D01*
X015428Y007697D02*
X015649Y007697D01*
X015649Y007745D02*
X015430Y007745D01*
X015430Y007794D02*
X015649Y007794D01*
X015649Y007842D02*
X015430Y007842D01*
X015430Y007891D02*
X015649Y007891D01*
X015649Y007939D02*
X015430Y007939D01*
X015430Y007988D02*
X015649Y007988D01*
X015649Y008036D02*
X015430Y008036D01*
X015430Y008085D02*
X015649Y008085D01*
X015649Y008133D02*
X015430Y008133D01*
X015430Y008182D02*
X015649Y008182D01*
X015649Y008230D02*
X015429Y008230D01*
X015425Y008279D02*
X015649Y008279D01*
X015649Y008327D02*
X015416Y008327D01*
X015403Y008376D02*
X015649Y008376D01*
X015649Y008424D02*
X015382Y008424D01*
X015356Y008473D02*
X015649Y008473D01*
X015649Y008521D02*
X015322Y008521D01*
X015274Y008570D02*
X015649Y008570D01*
X015649Y008618D02*
X015210Y008618D01*
X015107Y008667D02*
X015649Y008667D01*
X015649Y008715D02*
X014961Y008715D01*
X014961Y008764D02*
X015649Y008764D01*
X015649Y008812D02*
X014961Y008812D01*
X014961Y008861D02*
X015649Y008861D01*
X015649Y008909D02*
X014961Y008909D01*
X014961Y008958D02*
X015649Y008958D01*
X017448Y008958D02*
X018135Y008958D01*
X018135Y008972D02*
X017448Y008972D01*
X017448Y006972D01*
X018135Y006972D01*
X018135Y007254D01*
X018048Y007261D01*
X017964Y007284D01*
X017885Y007321D01*
X017814Y007371D01*
X017752Y007432D01*
X017702Y007504D01*
X017665Y007583D01*
X017643Y007667D01*
X017635Y007754D01*
X017635Y008222D01*
X017643Y008309D01*
X017665Y008393D01*
X017702Y008472D01*
X017752Y008544D01*
X017814Y008605D01*
X017885Y008655D01*
X017964Y008692D01*
X018048Y008715D01*
X018135Y008722D01*
X018135Y008972D01*
X018135Y008909D02*
X017448Y008909D01*
X017448Y008861D02*
X018135Y008861D01*
X018135Y008812D02*
X017448Y008812D01*
X017448Y008764D02*
X018135Y008764D01*
X018053Y008715D02*
X017448Y008715D01*
X017448Y008667D02*
X017909Y008667D01*
X017832Y008618D02*
X017448Y008618D01*
X017448Y008570D02*
X017778Y008570D01*
X017736Y008521D02*
X017448Y008521D01*
X017448Y008473D02*
X017702Y008473D01*
X017680Y008424D02*
X017448Y008424D01*
X017448Y008376D02*
X017661Y008376D01*
X017648Y008327D02*
X017448Y008327D01*
X017448Y008279D02*
X017640Y008279D01*
X017636Y008230D02*
X017448Y008230D01*
X017448Y008182D02*
X017635Y008182D01*
X017635Y008133D02*
X017448Y008133D01*
X017448Y008085D02*
X017635Y008085D01*
X017635Y008036D02*
X017448Y008036D01*
X017448Y007988D02*
X017635Y007988D01*
X017635Y007939D02*
X017448Y007939D01*
X017448Y007891D02*
X017635Y007891D01*
X017635Y007842D02*
X017448Y007842D01*
X017448Y007794D02*
X017635Y007794D01*
X017636Y007745D02*
X017448Y007745D01*
X017448Y007697D02*
X017640Y007697D01*
X017648Y007648D02*
X017448Y007648D01*
X017448Y007600D02*
X017661Y007600D01*
X017680Y007551D02*
X017448Y007551D01*
X017448Y007503D02*
X017703Y007503D01*
X017737Y007454D02*
X017448Y007454D01*
X017448Y007406D02*
X017779Y007406D01*
X017833Y007357D02*
X017448Y007357D01*
X017448Y007309D02*
X017911Y007309D01*
X018060Y007260D02*
X017448Y007260D01*
X017448Y007212D02*
X018135Y007212D01*
X018135Y007163D02*
X017448Y007163D01*
X017448Y007115D02*
X018135Y007115D01*
X018135Y007066D02*
X017448Y007066D01*
X017448Y007018D02*
X018135Y007018D01*
X018760Y007018D02*
X019448Y007018D01*
X019448Y006972D02*
X018760Y006972D01*
X018760Y007254D01*
X018842Y007261D01*
X018921Y007282D01*
X018995Y007316D01*
X019062Y007363D01*
X019119Y007421D01*
X019166Y007488D01*
X019201Y007562D01*
X019222Y007641D01*
X019229Y007722D01*
X019229Y008222D01*
X019222Y008304D01*
X019201Y008383D01*
X019166Y008457D01*
X019119Y008524D01*
X019062Y008582D01*
X018995Y008628D01*
X018921Y008663D01*
X018842Y008684D01*
X018760Y008691D01*
X018760Y008972D01*
X019448Y008972D01*
X019448Y006972D01*
X019448Y007066D02*
X018760Y007066D01*
X018760Y007115D02*
X019448Y007115D01*
X019448Y007163D02*
X018760Y007163D01*
X018760Y007212D02*
X019448Y007212D01*
X019448Y007260D02*
X018835Y007260D01*
X018978Y007309D02*
X019448Y007309D01*
X019448Y007357D02*
X019053Y007357D01*
X019104Y007406D02*
X019448Y007406D01*
X019448Y007454D02*
X019142Y007454D01*
X019173Y007503D02*
X019448Y007503D01*
X019448Y007551D02*
X019196Y007551D01*
X019211Y007600D02*
X019448Y007600D01*
X019448Y007648D02*
X019222Y007648D01*
X019227Y007697D02*
X019448Y007697D01*
X019448Y007745D02*
X019229Y007745D01*
X019229Y007794D02*
X019448Y007794D01*
X019448Y007842D02*
X019229Y007842D01*
X019229Y007891D02*
X019448Y007891D01*
X019448Y007939D02*
X019229Y007939D01*
X019229Y007988D02*
X019448Y007988D01*
X019448Y008036D02*
X019229Y008036D01*
X019229Y008085D02*
X019448Y008085D01*
X019448Y008133D02*
X019229Y008133D01*
X019229Y008182D02*
X019448Y008182D01*
X019448Y008230D02*
X019228Y008230D01*
X019224Y008279D02*
X019448Y008279D01*
X019448Y008327D02*
X019216Y008327D01*
X019203Y008376D02*
X019448Y008376D01*
X019448Y008424D02*
X019181Y008424D01*
X019155Y008473D02*
X019448Y008473D01*
X019448Y008521D02*
X019121Y008521D01*
X019073Y008570D02*
X019448Y008570D01*
X019448Y008618D02*
X019009Y008618D01*
X018906Y008667D02*
X019448Y008667D01*
X019448Y008715D02*
X018760Y008715D01*
X018760Y008764D02*
X019448Y008764D01*
X019448Y008812D02*
X018760Y008812D01*
X018760Y008861D02*
X019448Y008861D01*
X019448Y008909D02*
X018760Y008909D01*
X018760Y008958D02*
X019448Y008958D01*
D34*
X019323Y008722D03*
X017573Y008722D03*
X015524Y008722D03*
X013774Y008722D03*
D35*
X019137Y020657D03*
D36*
X017788Y020657D03*
X020485Y020657D03*
D37*
X020646Y017708D03*
X020646Y017511D03*
X020646Y017314D03*
X020646Y017118D03*
X020646Y016921D03*
X020646Y016724D03*
X022221Y016724D03*
X022221Y016921D03*
X022221Y017118D03*
X022221Y017314D03*
X022221Y017511D03*
X022221Y017708D03*
D38*
X021925Y018003D03*
X021728Y018003D03*
X021532Y018003D03*
X021335Y018003D03*
X021138Y018003D03*
X020941Y018003D03*
X020941Y016429D03*
X021138Y016429D03*
X021335Y016429D03*
X021532Y016429D03*
X021728Y016429D03*
X021925Y016429D03*
D39*
X018444Y011594D03*
X018444Y009799D03*
D40*
X021160Y010697D03*
M02*
